<mxfile host="app.diagrams.net" agent="Mozilla/5.0 (Windows NT 10.0; Win64; x64) AppleWebKit/537.36 (KHTML, like Gecko) Chrome/136.0.0.0 Safari/537.36" version="27.0.5">
  <diagram name="Page-1" id="kPH_RRZQtiZ7yuQRnkNO">
    <mxGraphModel dx="1895" dy="1105" grid="1" gridSize="10" guides="1" tooltips="1" connect="1" arrows="1" fold="1" page="1" pageScale="1" pageWidth="850" pageHeight="1100" math="0" shadow="0">
      <root>
        <mxCell id="0" />
        <mxCell id="1" parent="0" />
        <mxCell id="T9UPzVXBncNjqvYtc4vn-1" value="Start" style="ellipse;whiteSpace=wrap;html=1;" parent="1" vertex="1">
          <mxGeometry x="377.5" y="20" width="70" height="30" as="geometry" />
        </mxCell>
        <mxCell id="T9UPzVXBncNjqvYtc4vn-2" value="Input Teacher rank, Preferences,Courses" style="shape=parallelogram;perimeter=parallelogramPerimeter;whiteSpace=wrap;html=1;fixedSize=1;" parent="1" vertex="1">
          <mxGeometry x="300" y="90" width="250" height="30" as="geometry" />
        </mxCell>
        <mxCell id="T9UPzVXBncNjqvYtc4vn-3" value="Sort Courses by Teacher&#39;s rank" style="rounded=0;whiteSpace=wrap;html=1;" parent="1" vertex="1">
          <mxGeometry x="300" y="280" width="250" height="30" as="geometry" />
        </mxCell>
        <mxCell id="T9UPzVXBncNjqvYtc4vn-4" value="Save Inputs to JSON files" style="rounded=0;whiteSpace=wrap;html=1;" parent="1" vertex="1">
          <mxGeometry x="300" y="150" width="250" height="30" as="geometry" />
        </mxCell>
        <mxCell id="T9UPzVXBncNjqvYtc4vn-5" value="Read Inputs form JSON files" style="shape=parallelogram;perimeter=parallelogramPerimeter;whiteSpace=wrap;html=1;fixedSize=1;" parent="1" vertex="1">
          <mxGeometry x="300" y="210" width="250" height="30" as="geometry" />
        </mxCell>
        <mxCell id="T9UPzVXBncNjqvYtc4vn-6" value="For each Course" style="rounded=0;whiteSpace=wrap;html=1;" parent="1" vertex="1">
          <mxGeometry x="310" y="340" width="250" height="30" as="geometry" />
        </mxCell>
        <mxCell id="T9UPzVXBncNjqvYtc4vn-7" value="Is credit&amp;lt;2 ?" style="rhombus;whiteSpace=wrap;html=1;" parent="1" vertex="1">
          <mxGeometry x="388.75" y="448" width="92.5" height="60" as="geometry" />
        </mxCell>
        <mxCell id="T9UPzVXBncNjqvYtc4vn-8" value="" style="endArrow=classic;html=1;rounded=0;exitX=0.5;exitY=1;exitDx=0;exitDy=0;entryX=0.453;entryY=0.053;entryDx=0;entryDy=0;entryPerimeter=0;fillColor=#dae8fc;strokeColor=#6c8ebf;" parent="1" source="T9UPzVXBncNjqvYtc4vn-1" target="T9UPzVXBncNjqvYtc4vn-2" edge="1">
          <mxGeometry width="50" height="50" relative="1" as="geometry">
            <mxPoint x="210" y="150" as="sourcePoint" />
            <mxPoint x="260" y="100" as="targetPoint" />
          </mxGeometry>
        </mxCell>
        <mxCell id="T9UPzVXBncNjqvYtc4vn-9" value="" style="endArrow=classic;html=1;rounded=0;exitX=0.469;exitY=1.04;exitDx=0;exitDy=0;entryX=0.469;entryY=0;entryDx=0;entryDy=0;entryPerimeter=0;exitPerimeter=0;fillColor=#dae8fc;strokeColor=#6c8ebf;" parent="1" source="T9UPzVXBncNjqvYtc4vn-2" target="T9UPzVXBncNjqvYtc4vn-4" edge="1">
          <mxGeometry width="50" height="50" relative="1" as="geometry">
            <mxPoint x="424" y="108" as="sourcePoint" />
            <mxPoint x="424" y="150" as="targetPoint" />
          </mxGeometry>
        </mxCell>
        <mxCell id="T9UPzVXBncNjqvYtc4vn-10" value="" style="endArrow=classic;html=1;rounded=0;exitX=0.5;exitY=1;exitDx=0;exitDy=0;entryX=0.5;entryY=0;entryDx=0;entryDy=0;fillColor=#dae8fc;strokeColor=#6c8ebf;" parent="1" source="T9UPzVXBncNjqvYtc4vn-4" target="T9UPzVXBncNjqvYtc4vn-5" edge="1">
          <mxGeometry width="50" height="50" relative="1" as="geometry">
            <mxPoint x="660" y="161" as="sourcePoint" />
            <mxPoint x="660" y="190" as="targetPoint" />
            <Array as="points" />
          </mxGeometry>
        </mxCell>
        <mxCell id="T9UPzVXBncNjqvYtc4vn-14" value="" style="endArrow=classic;html=1;rounded=0;exitX=0.5;exitY=1;exitDx=0;exitDy=0;entryX=0.5;entryY=0;entryDx=0;entryDy=0;fillColor=#dae8fc;strokeColor=#6c8ebf;" parent="1" source="T9UPzVXBncNjqvYtc4vn-5" target="T9UPzVXBncNjqvYtc4vn-3" edge="1">
          <mxGeometry width="50" height="50" relative="1" as="geometry">
            <mxPoint x="435" y="190" as="sourcePoint" />
            <mxPoint x="435" y="220" as="targetPoint" />
            <Array as="points" />
          </mxGeometry>
        </mxCell>
        <mxCell id="T9UPzVXBncNjqvYtc4vn-15" value="" style="endArrow=classic;html=1;rounded=0;exitX=0.5;exitY=1;exitDx=0;exitDy=0;fillColor=#dae8fc;strokeColor=#6c8ebf;" parent="1" source="T9UPzVXBncNjqvYtc4vn-3" edge="1">
          <mxGeometry width="50" height="50" relative="1" as="geometry">
            <mxPoint x="435" y="250" as="sourcePoint" />
            <mxPoint x="425" y="340" as="targetPoint" />
            <Array as="points" />
          </mxGeometry>
        </mxCell>
        <mxCell id="T9UPzVXBncNjqvYtc4vn-16" value="" style="endArrow=classic;html=1;rounded=0;exitX=0.5;exitY=1;exitDx=0;exitDy=0;fillColor=#dae8fc;strokeColor=#6c8ebf;" parent="1" source="T9UPzVXBncNjqvYtc4vn-6" edge="1">
          <mxGeometry width="50" height="50" relative="1" as="geometry">
            <mxPoint x="435" y="320" as="sourcePoint" />
            <mxPoint x="436" y="400" as="targetPoint" />
            <Array as="points" />
          </mxGeometry>
        </mxCell>
        <mxCell id="T9UPzVXBncNjqvYtc4vn-17" value="&amp;nbsp;Assign credit number of slots" style="rounded=0;whiteSpace=wrap;html=1;" parent="1" vertex="1">
          <mxGeometry x="173.75" y="583" width="180" height="30" as="geometry" />
        </mxCell>
        <mxCell id="T9UPzVXBncNjqvYtc4vn-18" value="&amp;nbsp;Assign three adjacent slots" style="rounded=0;whiteSpace=wrap;html=1;" parent="1" vertex="1">
          <mxGeometry x="626.25" y="583" width="190" height="30" as="geometry" />
        </mxCell>
        <mxCell id="T9UPzVXBncNjqvYtc4vn-19" value="" style="endArrow=classic;html=1;rounded=0;exitX=1;exitY=0.5;exitDx=0;exitDy=0;entryX=0;entryY=0.5;entryDx=0;entryDy=0;fillColor=#dae8fc;strokeColor=#6c8ebf;edgeStyle=orthogonalEdgeStyle;" parent="1" source="T9UPzVXBncNjqvYtc4vn-7" target="iqAza3pzM_VMF-m5_Jx6-2" edge="1">
          <mxGeometry width="50" height="50" relative="1" as="geometry">
            <mxPoint x="941.25" y="448" as="sourcePoint" />
            <mxPoint x="835.5" y="398" as="targetPoint" />
          </mxGeometry>
        </mxCell>
        <mxCell id="T9UPzVXBncNjqvYtc4vn-20" value="Yes" style="text;html=1;align=center;verticalAlign=middle;resizable=0;points=[];autosize=1;" parent="1" vertex="1">
          <mxGeometry x="540" y="473" width="40" height="30" as="geometry" />
        </mxCell>
        <mxCell id="T9UPzVXBncNjqvYtc4vn-21" value="" style="endArrow=classic;html=1;rounded=0;exitX=0;exitY=0.5;exitDx=0;exitDy=0;edgeStyle=orthogonalEdgeStyle;entryX=0.5;entryY=0;entryDx=0;entryDy=0;fillColor=#dae8fc;strokeColor=#6c8ebf;" parent="1" source="T9UPzVXBncNjqvYtc4vn-7" target="iqAza3pzM_VMF-m5_Jx6-3" edge="1">
          <mxGeometry width="50" height="50" relative="1" as="geometry">
            <mxPoint x="400" y="600" as="sourcePoint" />
            <mxPoint x="590" y="470" as="targetPoint" />
          </mxGeometry>
        </mxCell>
        <mxCell id="T9UPzVXBncNjqvYtc4vn-25" value="" style="endArrow=classic;html=1;rounded=0;entryX=1;entryY=0.5;entryDx=0;entryDy=0;exitX=0.5;exitY=1;exitDx=0;exitDy=0;edgeStyle=orthogonalEdgeStyle;fillColor=#dae8fc;strokeColor=#6c8ebf;" parent="1" source="T9UPzVXBncNjqvYtc4vn-17" target="iqAza3pzM_VMF-m5_Jx6-20" edge="1">
          <mxGeometry width="50" height="50" relative="1" as="geometry">
            <mxPoint x="590" y="600" as="sourcePoint" />
            <mxPoint x="550" y="730" as="targetPoint" />
          </mxGeometry>
        </mxCell>
        <mxCell id="T9UPzVXBncNjqvYtc4vn-59" value="Is credit&amp;gt;=class?" style="rhombus;whiteSpace=wrap;html=1;" parent="1" vertex="1">
          <mxGeometry x="520" y="860.5" width="109.38" height="65" as="geometry" />
        </mxCell>
        <mxCell id="T9UPzVXBncNjqvYtc4vn-60" value="" style="endArrow=classic;html=1;rounded=0;entryX=0;entryY=0.5;entryDx=0;entryDy=0;edgeStyle=orthogonalEdgeStyle;exitX=0.5;exitY=0;exitDx=0;exitDy=0;fillColor=#dae8fc;strokeColor=#6c8ebf;" parent="1" source="iqAza3pzM_VMF-m5_Jx6-57" target="T9UPzVXBncNjqvYtc4vn-6" edge="1">
          <mxGeometry width="50" height="50" relative="1" as="geometry">
            <mxPoint x="90" y="685" as="sourcePoint" />
            <mxPoint x="90" y="860" as="targetPoint" />
            <Array as="points">
              <mxPoint x="140" y="655" />
              <mxPoint x="140" y="355" />
            </Array>
          </mxGeometry>
        </mxCell>
        <mxCell id="T9UPzVXBncNjqvYtc4vn-61" value="" style="endArrow=classic;html=1;rounded=0;exitX=0.5;exitY=1;exitDx=0;exitDy=0;fillColor=#dae8fc;strokeColor=#6c8ebf;" parent="1" source="iqAza3pzM_VMF-m5_Jx6-42" edge="1">
          <mxGeometry width="50" height="50" relative="1" as="geometry">
            <mxPoint x="809.3599999999999" y="730" as="sourcePoint" />
            <mxPoint x="731" y="880" as="targetPoint" />
          </mxGeometry>
        </mxCell>
        <mxCell id="T9UPzVXBncNjqvYtc4vn-64" value="Generate Routine in Excel format" style="rounded=0;whiteSpace=wrap;html=1;" parent="1" vertex="1">
          <mxGeometry x="318.13" y="990" width="181.25" height="30" as="geometry" />
        </mxCell>
        <mxCell id="T9UPzVXBncNjqvYtc4vn-65" value="" style="endArrow=classic;html=1;rounded=0;exitX=0;exitY=0.5;exitDx=0;exitDy=0;entryX=0;entryY=0.5;entryDx=0;entryDy=0;edgeStyle=orthogonalEdgeStyle;fillColor=#dae8fc;strokeColor=#6c8ebf;" parent="1" source="iqAza3pzM_VMF-m5_Jx6-35" target="iqAza3pzM_VMF-m5_Jx6-32" edge="1">
          <mxGeometry width="50" height="50" relative="1" as="geometry">
            <mxPoint x="320" y="910" as="sourcePoint" />
            <mxPoint x="416" y="949" as="targetPoint" />
            <Array as="points">
              <mxPoint x="280" y="817" />
              <mxPoint x="280" y="755" />
            </Array>
          </mxGeometry>
        </mxCell>
        <mxCell id="T9UPzVXBncNjqvYtc4vn-66" value="Yes" style="text;html=1;align=center;verticalAlign=middle;resizable=0;points=[];autosize=1;" parent="1" vertex="1">
          <mxGeometry x="540" y="920" width="40" height="30" as="geometry" />
        </mxCell>
        <mxCell id="T9UPzVXBncNjqvYtc4vn-67" value="End" style="ellipse;whiteSpace=wrap;html=1;" parent="1" vertex="1">
          <mxGeometry x="373.75" y="1050" width="70" height="30" as="geometry" />
        </mxCell>
        <mxCell id="T9UPzVXBncNjqvYtc4vn-68" value="" style="endArrow=classic;html=1;rounded=0;exitX=1;exitY=0.5;exitDx=0;exitDy=0;entryX=0;entryY=0.5;entryDx=0;entryDy=0;fillColor=#dae8fc;strokeColor=#6c8ebf;" parent="1" source="iqAza3pzM_VMF-m5_Jx6-35" target="iqAza3pzM_VMF-m5_Jx6-40" edge="1">
          <mxGeometry width="50" height="50" relative="1" as="geometry">
            <mxPoint x="420" y="980" as="sourcePoint" />
            <mxPoint x="530" y="860" as="targetPoint" />
          </mxGeometry>
        </mxCell>
        <mxCell id="iqAza3pzM_VMF-m5_Jx6-2" value="Can&amp;nbsp; assign&lt;br&gt;&amp;nbsp;three adjacent &lt;br&gt;slots?" style="rhombus;whiteSpace=wrap;html=1;" parent="1" vertex="1">
          <mxGeometry x="641.25" y="456" width="190" height="60" as="geometry" />
        </mxCell>
        <mxCell id="iqAza3pzM_VMF-m5_Jx6-3" value="Can assign?" style="rhombus;whiteSpace=wrap;html=1;" parent="1" vertex="1">
          <mxGeometry x="217.5" y="493" width="92.5" height="60" as="geometry" />
        </mxCell>
        <mxCell id="iqAza3pzM_VMF-m5_Jx6-4" value="" style="endArrow=classic;html=1;rounded=0;exitX=0.5;exitY=1;exitDx=0;exitDy=0;entryX=0.57;entryY=-0.007;entryDx=0;entryDy=0;entryPerimeter=0;fillColor=#dae8fc;strokeColor=#6c8ebf;" parent="1" source="iqAza3pzM_VMF-m5_Jx6-2" target="T9UPzVXBncNjqvYtc4vn-18" edge="1">
          <mxGeometry width="50" height="50" relative="1" as="geometry">
            <mxPoint x="841.25" y="611" as="sourcePoint" />
            <mxPoint x="891.25" y="561" as="targetPoint" />
          </mxGeometry>
        </mxCell>
        <mxCell id="iqAza3pzM_VMF-m5_Jx6-5" value="" style="endArrow=classic;html=1;rounded=0;exitX=0.5;exitY=1;exitDx=0;exitDy=0;entryX=0.5;entryY=0;entryDx=0;entryDy=0;fillColor=#dae8fc;strokeColor=#6c8ebf;" parent="1" source="iqAza3pzM_VMF-m5_Jx6-3" target="T9UPzVXBncNjqvYtc4vn-17" edge="1">
          <mxGeometry width="50" height="50" relative="1" as="geometry">
            <mxPoint x="75" y="653" as="sourcePoint" />
            <mxPoint x="261" y="553" as="targetPoint" />
          </mxGeometry>
        </mxCell>
        <mxCell id="iqAza3pzM_VMF-m5_Jx6-7" value="Yes" style="text;html=1;align=center;verticalAlign=middle;resizable=0;points=[];autosize=1;" parent="1" vertex="1">
          <mxGeometry x="701.25" y="506" width="40" height="30" as="geometry" />
        </mxCell>
        <mxCell id="iqAza3pzM_VMF-m5_Jx6-8" value="Yes" style="text;html=1;align=center;verticalAlign=middle;resizable=0;points=[];autosize=1;" parent="1" vertex="1">
          <mxGeometry x="255" y="548" width="40" height="30" as="geometry" />
        </mxCell>
        <mxCell id="iqAza3pzM_VMF-m5_Jx6-12" value="" style="endArrow=classic;html=1;rounded=0;edgeStyle=orthogonalEdgeStyle;fillColor=#dae8fc;strokeColor=#6c8ebf;entryX=1;entryY=0.5;entryDx=0;entryDy=0;exitX=0.5;exitY=0;exitDx=0;exitDy=0;" parent="1" source="iqAza3pzM_VMF-m5_Jx6-2" target="iqAza3pzM_VMF-m5_Jx6-22" edge="1">
          <mxGeometry width="50" height="50" relative="1" as="geometry">
            <mxPoint x="850" y="470" as="sourcePoint" />
            <mxPoint x="750" y="370" as="targetPoint" />
            <Array as="points">
              <mxPoint x="740" y="456" />
              <mxPoint x="740" y="415" />
            </Array>
          </mxGeometry>
        </mxCell>
        <mxCell id="iqAza3pzM_VMF-m5_Jx6-15" value="No" style="text;html=1;align=center;verticalAlign=middle;resizable=0;points=[];autosize=1;" parent="1" vertex="1">
          <mxGeometry x="731.25" y="414" width="40" height="30" as="geometry" />
        </mxCell>
        <mxCell id="iqAza3pzM_VMF-m5_Jx6-19" value="No" style="text;html=1;align=center;verticalAlign=middle;resizable=0;points=[];autosize=1;" parent="1" vertex="1">
          <mxGeometry x="280.63" y="488" width="40" height="30" as="geometry" />
        </mxCell>
        <mxCell id="iqAza3pzM_VMF-m5_Jx6-20" value="If credit&amp;gt;=class?" style="rhombus;whiteSpace=wrap;html=1;" parent="1" vertex="1">
          <mxGeometry x="365" y="660" width="112.5" height="50" as="geometry" />
        </mxCell>
        <mxCell id="iqAza3pzM_VMF-m5_Jx6-21" value="No" style="text;html=1;align=center;verticalAlign=middle;resizable=0;points=[];autosize=1;" parent="1" vertex="1">
          <mxGeometry x="388.75" y="710" width="40" height="30" as="geometry" />
        </mxCell>
        <mxCell id="iqAza3pzM_VMF-m5_Jx6-22" value="For each&amp;nbsp; slot" style="rounded=0;whiteSpace=wrap;html=1;" parent="1" vertex="1">
          <mxGeometry x="310" y="400" width="250" height="30" as="geometry" />
        </mxCell>
        <mxCell id="iqAza3pzM_VMF-m5_Jx6-23" value="" style="endArrow=classic;html=1;rounded=0;exitX=0.5;exitY=1;exitDx=0;exitDy=0;entryX=0.5;entryY=0;entryDx=0;entryDy=0;fillColor=#dae8fc;strokeColor=#6c8ebf;" parent="1" source="iqAza3pzM_VMF-m5_Jx6-22" target="T9UPzVXBncNjqvYtc4vn-7" edge="1">
          <mxGeometry width="50" height="50" relative="1" as="geometry">
            <mxPoint x="445" y="380" as="sourcePoint" />
            <mxPoint x="446" y="410" as="targetPoint" />
            <Array as="points" />
          </mxGeometry>
        </mxCell>
        <mxCell id="iqAza3pzM_VMF-m5_Jx6-27" value="Yes" style="text;html=1;align=center;verticalAlign=middle;resizable=0;points=[];autosize=1;" parent="1" vertex="1">
          <mxGeometry x="330" y="660" width="40" height="30" as="geometry" />
        </mxCell>
        <mxCell id="iqAza3pzM_VMF-m5_Jx6-32" value="Resolve conflict for each&amp;nbsp; slot" style="rounded=0;whiteSpace=wrap;html=1;" parent="1" vertex="1">
          <mxGeometry x="320" y="740" width="250" height="30" as="geometry" />
        </mxCell>
        <mxCell id="iqAza3pzM_VMF-m5_Jx6-33" value="" style="endArrow=classic;html=1;rounded=0;exitX=0.5;exitY=1;exitDx=0;exitDy=0;entryX=0.409;entryY=0.087;entryDx=0;entryDy=0;entryPerimeter=0;fillColor=#dae8fc;strokeColor=#6c8ebf;" parent="1" source="iqAza3pzM_VMF-m5_Jx6-20" target="iqAza3pzM_VMF-m5_Jx6-32" edge="1">
          <mxGeometry width="50" height="50" relative="1" as="geometry">
            <mxPoint x="380" y="800" as="sourcePoint" />
            <mxPoint x="430" y="800" as="targetPoint" />
          </mxGeometry>
        </mxCell>
        <mxCell id="iqAza3pzM_VMF-m5_Jx6-35" value="Is conflict?" style="rhombus;whiteSpace=wrap;html=1;" parent="1" vertex="1">
          <mxGeometry x="370" y="796" width="102.5" height="42" as="geometry" />
        </mxCell>
        <mxCell id="iqAza3pzM_VMF-m5_Jx6-36" value="" style="endArrow=classic;html=1;rounded=0;exitX=0.405;exitY=1;exitDx=0;exitDy=0;exitPerimeter=0;entryX=0.5;entryY=0;entryDx=0;entryDy=0;fillColor=#dae8fc;strokeColor=#6c8ebf;" parent="1" source="iqAza3pzM_VMF-m5_Jx6-32" target="iqAza3pzM_VMF-m5_Jx6-35" edge="1">
          <mxGeometry width="50" height="50" relative="1" as="geometry">
            <mxPoint x="380" y="910" as="sourcePoint" />
            <mxPoint x="430" y="860" as="targetPoint" />
          </mxGeometry>
        </mxCell>
        <mxCell id="iqAza3pzM_VMF-m5_Jx6-37" value="For next slot" style="text;html=1;align=center;verticalAlign=middle;resizable=0;points=[];autosize=1;" parent="1" vertex="1">
          <mxGeometry x="220" y="720" width="90" height="30" as="geometry" />
        </mxCell>
        <mxCell id="iqAza3pzM_VMF-m5_Jx6-38" value="No" style="text;html=1;align=center;verticalAlign=middle;resizable=0;points=[];autosize=1;" parent="1" vertex="1">
          <mxGeometry x="330" y="796" width="40" height="30" as="geometry" />
        </mxCell>
        <mxCell id="iqAza3pzM_VMF-m5_Jx6-39" value="Yes" style="text;html=1;align=center;verticalAlign=middle;resizable=0;points=[];autosize=1;" parent="1" vertex="1">
          <mxGeometry x="470" y="796" width="40" height="30" as="geometry" />
        </mxCell>
        <mxCell id="iqAza3pzM_VMF-m5_Jx6-40" value="reassign current Course" style="rounded=0;whiteSpace=wrap;html=1;" parent="1" vertex="1">
          <mxGeometry x="531.88" y="802" width="113.75" height="30" as="geometry" />
        </mxCell>
        <mxCell id="iqAza3pzM_VMF-m5_Jx6-42" value="Is possible?" style="rhombus;whiteSpace=wrap;html=1;" parent="1" vertex="1">
          <mxGeometry x="687.5" y="792" width="82.5" height="50" as="geometry" />
        </mxCell>
        <mxCell id="iqAza3pzM_VMF-m5_Jx6-43" value="" style="endArrow=classic;html=1;rounded=0;exitX=1;exitY=0.5;exitDx=0;exitDy=0;entryX=0;entryY=0.5;entryDx=0;entryDy=0;fillColor=#dae8fc;strokeColor=#6c8ebf;" parent="1" source="iqAza3pzM_VMF-m5_Jx6-40" target="iqAza3pzM_VMF-m5_Jx6-42" edge="1">
          <mxGeometry width="50" height="50" relative="1" as="geometry">
            <mxPoint x="380" y="970" as="sourcePoint" />
            <mxPoint x="430" y="920" as="targetPoint" />
          </mxGeometry>
        </mxCell>
        <mxCell id="iqAza3pzM_VMF-m5_Jx6-44" value="" style="endArrow=classic;html=1;rounded=0;exitX=0.5;exitY=0;exitDx=0;exitDy=0;entryX=1;entryY=0.5;entryDx=0;entryDy=0;edgeStyle=orthogonalEdgeStyle;fillColor=#dae8fc;strokeColor=#6c8ebf;" parent="1" source="iqAza3pzM_VMF-m5_Jx6-42" target="iqAza3pzM_VMF-m5_Jx6-32" edge="1">
          <mxGeometry width="50" height="50" relative="1" as="geometry">
            <mxPoint x="380" y="970" as="sourcePoint" />
            <mxPoint x="430" y="920" as="targetPoint" />
          </mxGeometry>
        </mxCell>
        <mxCell id="iqAza3pzM_VMF-m5_Jx6-45" value="No" style="text;html=1;align=center;verticalAlign=middle;resizable=0;points=[];autosize=1;" parent="1" vertex="1">
          <mxGeometry x="720" y="766" width="40" height="30" as="geometry" />
        </mxCell>
        <mxCell id="iqAza3pzM_VMF-m5_Jx6-46" value="For next slot" style="text;html=1;align=center;verticalAlign=middle;resizable=0;points=[];autosize=1;" parent="1" vertex="1">
          <mxGeometry x="575" y="720" width="90" height="30" as="geometry" />
        </mxCell>
        <mxCell id="iqAza3pzM_VMF-m5_Jx6-47" value="Assign Course" style="rounded=0;whiteSpace=wrap;html=1;" parent="1" vertex="1">
          <mxGeometry x="678.75" y="878" width="113.75" height="30" as="geometry" />
        </mxCell>
        <mxCell id="iqAza3pzM_VMF-m5_Jx6-48" value="Yes" style="text;html=1;align=center;verticalAlign=middle;resizable=0;points=[];autosize=1;" parent="1" vertex="1">
          <mxGeometry x="730" y="840" width="40" height="30" as="geometry" />
        </mxCell>
        <mxCell id="iqAza3pzM_VMF-m5_Jx6-51" value="" style="endArrow=none;html=1;rounded=0;entryX=0;entryY=0.5;entryDx=0;entryDy=0;edgeStyle=orthogonalEdgeStyle;fillColor=#dae8fc;strokeColor=#6c8ebf;" parent="1" target="T9UPzVXBncNjqvYtc4vn-59" edge="1">
          <mxGeometry width="50" height="50" relative="1" as="geometry">
            <mxPoint x="280" y="810" as="sourcePoint" />
            <mxPoint x="430" y="940" as="targetPoint" />
            <Array as="points">
              <mxPoint x="280" y="893" />
            </Array>
          </mxGeometry>
        </mxCell>
        <mxCell id="iqAza3pzM_VMF-m5_Jx6-52" value="No" style="text;html=1;align=center;verticalAlign=middle;resizable=0;points=[];autosize=1;" parent="1" vertex="1">
          <mxGeometry x="490" y="870" width="40" height="30" as="geometry" />
        </mxCell>
        <mxCell id="iqAza3pzM_VMF-m5_Jx6-54" value="" style="endArrow=classic;html=1;rounded=0;entryX=1;entryY=0.5;entryDx=0;entryDy=0;exitX=0;exitY=0.5;exitDx=0;exitDy=0;fillColor=#dae8fc;strokeColor=#6c8ebf;" parent="1" source="iqAza3pzM_VMF-m5_Jx6-47" target="T9UPzVXBncNjqvYtc4vn-59" edge="1">
          <mxGeometry width="50" height="50" relative="1" as="geometry">
            <mxPoint x="680" y="935" as="sourcePoint" />
            <mxPoint x="430" y="970" as="targetPoint" />
          </mxGeometry>
        </mxCell>
        <mxCell id="iqAza3pzM_VMF-m5_Jx6-57" value="&lt;div&gt;Is assigned&lt;/div&gt;&lt;div&gt;&amp;nbsp;all course?&lt;/div&gt;" style="rhombus;whiteSpace=wrap;html=1;" parent="1" vertex="1">
          <mxGeometry x="90" y="655" width="102.5" height="60" as="geometry" />
        </mxCell>
        <mxCell id="iqAza3pzM_VMF-m5_Jx6-58" value="No" style="text;html=1;align=center;verticalAlign=middle;resizable=0;points=[];autosize=1;" parent="1" vertex="1">
          <mxGeometry x="130" y="625" width="40" height="30" as="geometry" />
        </mxCell>
        <mxCell id="iqAza3pzM_VMF-m5_Jx6-59" value="" style="endArrow=classic;html=1;rounded=0;entryX=1;entryY=0.5;entryDx=0;entryDy=0;exitX=0.89;exitY=0.833;exitDx=0;exitDy=0;exitPerimeter=0;fillColor=#dae8fc;strokeColor=#6c8ebf;" parent="1" source="iqAza3pzM_VMF-m5_Jx6-27" target="iqAza3pzM_VMF-m5_Jx6-57" edge="1">
          <mxGeometry width="50" height="50" relative="1" as="geometry">
            <mxPoint x="250" y="760" as="sourcePoint" />
            <mxPoint x="300" y="710" as="targetPoint" />
          </mxGeometry>
        </mxCell>
        <mxCell id="iqAza3pzM_VMF-m5_Jx6-60" value="" style="endArrow=classic;html=1;rounded=0;exitX=0.9;exitY=0.207;exitDx=0;exitDy=0;exitPerimeter=0;entryX=0.5;entryY=1;entryDx=0;entryDy=0;edgeStyle=orthogonalEdgeStyle;fillColor=#dae8fc;strokeColor=#6c8ebf;" parent="1" source="T9UPzVXBncNjqvYtc4vn-66" target="iqAza3pzM_VMF-m5_Jx6-57" edge="1">
          <mxGeometry width="50" height="50" relative="1" as="geometry">
            <mxPoint x="250" y="880" as="sourcePoint" />
            <mxPoint x="300" y="830" as="targetPoint" />
          </mxGeometry>
        </mxCell>
        <mxCell id="iqAza3pzM_VMF-m5_Jx6-61" value="" style="endArrow=classic;html=1;rounded=0;edgeStyle=orthogonalEdgeStyle;entryX=0.5;entryY=0;entryDx=0;entryDy=0;fillColor=#dae8fc;strokeColor=#6c8ebf;exitX=0;exitY=0.5;exitDx=0;exitDy=0;" parent="1" source="iqAza3pzM_VMF-m5_Jx6-57" target="T9UPzVXBncNjqvYtc4vn-64" edge="1">
          <mxGeometry width="50" height="50" relative="1" as="geometry">
            <mxPoint x="71.2" y="690" as="sourcePoint" />
            <mxPoint x="329.9550000000001" y="1015" as="targetPoint" />
            <Array as="points">
              <mxPoint x="39" y="685" />
              <mxPoint x="39" y="970" />
              <mxPoint x="409" y="970" />
            </Array>
          </mxGeometry>
        </mxCell>
        <mxCell id="iqAza3pzM_VMF-m5_Jx6-62" value="Yes" style="text;html=1;align=center;verticalAlign=middle;resizable=0;points=[];autosize=1;" parent="1" vertex="1">
          <mxGeometry x="60" y="685" width="40" height="30" as="geometry" />
        </mxCell>
        <mxCell id="iqAza3pzM_VMF-m5_Jx6-63" value="" style="endArrow=classic;html=1;rounded=0;exitX=0.5;exitY=1;exitDx=0;exitDy=0;entryX=0.5;entryY=0;entryDx=0;entryDy=0;fillColor=#dae8fc;strokeColor=#6c8ebf;" parent="1" source="T9UPzVXBncNjqvYtc4vn-64" target="T9UPzVXBncNjqvYtc4vn-67" edge="1">
          <mxGeometry width="50" height="50" relative="1" as="geometry">
            <mxPoint x="240" y="910" as="sourcePoint" />
            <mxPoint x="400" y="1040" as="targetPoint" />
          </mxGeometry>
        </mxCell>
      </root>
    </mxGraphModel>
  </diagram>
</mxfile>
